# xmcd
#
# Track frame offsets:
#	225
#	11580
#	26061
#	39567
#	56998
#	71528
#	86817
#	104837
#	118671
#	131484
#	147982
#	167246
#	179833
#	195648
#	206382
#
# Disc length: 2963 seconds
#
# Revision: 1
# Processed by: cddbd v1.5.2PL0 Copyright (c) Steve Scherf et al.
# Submitted via: audiograbber 1.83.01
#
DISCID=e80b900f
DTITLE=Various Artist - Kings and Queens of Irish Country (The Irish Mail on Sun
DTITLE=day)
DYEAR=1900
DGENRE=
TTITLE0=Johnny McEvoy - Musheen Durkin
TTITLE1=Larry Cunningham - Slaney Valley
TTITLE2=Danny Doyle - Whiskey on a Sunday
TTITLE3=Big Ivan - Green Glens of Antrim
TTITLE4=Anne Breen - I'll Be Your Sweetheart
TTITLE5=Barnbrack - Danny Boy
TTITLE6=Margo - Cliffs of Dooneen
TTITLE7=Bridie Gallagher - Lovely Irish Rose
TTITLE8=Philomena Begley - A Village in County Tyrone
TTITLE9=Daniel O'Donnell - Slievenamon
TTITLE10=Kilkenny Ensemble - Sweet Rosie O'Grady
TTITLE11=Kilkenny Ensemble - Mother Machree
TTITLE12=Kilkenny Ensemble - Moonlight in Mayo
TTITLE13=Kilkenny Ensemble - Patsy Fagan
TTITLE14=Kilkenny Ensemble - My Lagan Love
EXTD=
EXTT0=
EXTT1=
EXTT2=
EXTT3=
EXTT4=
EXTT5=
EXTT6=
EXTT7=
EXTT8=
EXTT9=
EXTT10=
EXTT11=
EXTT12=
EXTT13=
EXTT14=
PLAYORDER=
